<?xml version="1.0" encoding="utf-8"?>
<!-- Generator: Adobe Illustrator 24.2.1, SVG Export Plug-In . SVG Version: 6.00 Build 0)  -->
<svg version="1.1" id="Layer_1" xmlns="http://www.w3.org/2000/svg" xmlns:xlink="http://www.w3.org/1999/xlink" x="0px" y="0px"
	 viewBox="0 0 841.9 595.3" style="enable-background:new 0 0 841.9 595.3;" xml:space="preserve">
<style type="text/css">
	.st0{fill:#2E4A9A;}
	.st1{fill:url(#SVGID_1_);}
	.st2{fill:url(#SVGID_2_);}
	.st3{fill:url(#SVGID_3_);}
	.st4{fill:url(#SVGID_4_);}
	.st5{fill:url(#SVGID_5_);}
	.st6{fill:url(#SVGID_6_);}
	.st7{fill:url(#SVGID_7_);}
	.st8{fill:url(#SVGID_8_);}
	.st9{fill:#E62448;}
	.st10{fill:url(#SVGID_9_);}
	.st11{fill:url(#SVGID_10_);}
	.st12{fill:url(#SVGID_11_);}
	.st13{fill:url(#SVGID_12_);}
	.st14{fill:none;}
</style>
<g>
	<g>
		<g>
			<path class="st0" d="M465.9,292.9l76-0.1L422.7,421.7c-0.1,0-78.1,8.5-98.3,32.5c0,0-58.8-48.7-100.3-54.1l31-42L240,336.6
				l-59,86.6c0,0,96.5,4.7,134,68.9c0,0,31.5-49.1,122.8-39.8l159-182.2C591.5,269,473.1,245.4,465.9,292.9z"/>
		</g>
		<g>
			<path class="st0" d="M466.5,292.5h76.3L422.9,422c0,0-78.3,8.5-98.4,32.6c0,0-59.4-49-101-54.4l31.1-42.2L240,337l-58.2,85.5
				c0,0,95.6,4.2,133.2,68.4c0,0,31.2-48.8,122.4-39.4l158.5-181.4C590.5,269.3,474.2,246,466.5,292.5z"/>
		</g>
		<g>
			<path class="st0" d="M465.1,293.7l75-0.1L422.3,421c0,0-77.7,8-97.9,32.2c0,0-57.6-48.1-99.2-53.5l30.8-41.5l-16.1-22.8
				l-60.4,88.5c0,0,97.9,5.4,135.4,69.6c0,0,32.1-49.8,123.3-40.4l159.5-183.5C597.8,269.6,471.9,242.8,465.1,293.7z"/>
		</g>
		<g>
			<path class="st0" d="M465.5,293.2l75.4-0.1L422.4,421.3c0,0-78.8,9.3-98,32.4c0,0-60.2-48.7-99.7-53.9l30.9-41.8l-15.7-22.1
				l-59.6,87.5c0-0.7,99.5,7.2,134.8,69.3c2.1-3.3,35.9-50.4,123.1-40.1l159.1-182.9C597.2,269.4,471.9,244,465.5,293.2z"/>
		</g>
	</g>
	<g>
		
			<linearGradient id="SVGID_1_" gradientUnits="userSpaceOnUse" x1="319.8114" y1="253.6388" x2="371.6114" y2="253.6388" gradientTransform="matrix(1 0 0 -1 0 595.2756)">
			<stop  offset="0" style="stop-color:#E20E18"/>
			<stop  offset="0" style="stop-color:#E41520"/>
			<stop  offset="0" style="stop-color:#E51E3B"/>
			<stop  offset="0" style="stop-color:#E62448"/>
			<stop  offset="0.1859" style="stop-color:#E62648"/>
			<stop  offset="0.2529" style="stop-color:#E62F4C"/>
			<stop  offset="0.3007" style="stop-color:#E73C53"/>
			<stop  offset="0.3393" style="stop-color:#E94F5D"/>
			<stop  offset="0.3724" style="stop-color:#E9666B"/>
			<stop  offset="0.4017" style="stop-color:#EE8080"/>
			<stop  offset="0.4282" style="stop-color:#F09C98"/>
			<stop  offset="0.4526" style="stop-color:#F3BBB6"/>
			<stop  offset="0.4742" style="stop-color:#F4D8D4"/>
			<stop  offset="0.4944" style="stop-color:#F6F6F6"/>
			<stop  offset="0.4981" style="stop-color:#F0EEF1"/>
			<stop  offset="0.5185" style="stop-color:#D3C6D8"/>
			<stop  offset="0.5415" style="stop-color:#BBA0BC"/>
			<stop  offset="0.5662" style="stop-color:#A67FA5"/>
			<stop  offset="0.593" style="stop-color:#956494"/>
			<stop  offset="0.6227" style="stop-color:#894D85"/>
			<stop  offset="0.6562" style="stop-color:#7D3D7A"/>
			<stop  offset="0.6953" style="stop-color:#743273"/>
			<stop  offset="0.7437" style="stop-color:#6F296E"/>
			<stop  offset="0.8116" style="stop-color:#6B236C"/>
			<stop  offset="1" style="stop-color:#6A236B"/>
		</linearGradient>
		<path class="st1" d="M358.4,303.5c0.2-12.2,5.8-10.4,5.8-10.4v-14.4h-18.5h-18.5v14.4c0,0,5.2-2,5.7,10c0,0,5.1,20-13.1,41.5
			c0,0,21.5,44.1,21.9,60l0.7-53.4c0,0-4.5,0.9-4.6-3.9s4.3-4.2,4.3-4.2h3.6h3.6c0,0,4.4-0.6,4.3,4.2c-0.1,4.8-4.6,3.9-4.6,3.9
			l0.7,53.4c0.4-15.9,21.9-60,21.9-60C353.4,323.1,358.4,303.5,358.4,303.5z"/>
		
			<linearGradient id="SVGID_2_" gradientUnits="userSpaceOnUse" x1="320.2113" y1="253.8388" x2="371.3282" y2="253.8388" gradientTransform="matrix(1 0 0 -1 0 595.2756)">
			<stop  offset="0" style="stop-color:#E20E18"/>
			<stop  offset="0" style="stop-color:#E41520"/>
			<stop  offset="0" style="stop-color:#E51E3B"/>
			<stop  offset="0" style="stop-color:#E62448"/>
			<stop  offset="0.1859" style="stop-color:#E62648"/>
			<stop  offset="0.2529" style="stop-color:#E62F4C"/>
			<stop  offset="0.3007" style="stop-color:#E73C53"/>
			<stop  offset="0.3393" style="stop-color:#E94F5D"/>
			<stop  offset="0.3724" style="stop-color:#E9666B"/>
			<stop  offset="0.4017" style="stop-color:#EE8080"/>
			<stop  offset="0.4282" style="stop-color:#F09C98"/>
			<stop  offset="0.4526" style="stop-color:#F3BBB6"/>
			<stop  offset="0.4742" style="stop-color:#F4D8D4"/>
			<stop  offset="0.4944" style="stop-color:#F6F6F6"/>
			<stop  offset="0.4981" style="stop-color:#F0EEF1"/>
			<stop  offset="0.5185" style="stop-color:#D3C6D8"/>
			<stop  offset="0.5415" style="stop-color:#BBA0BC"/>
			<stop  offset="0.5662" style="stop-color:#A67FA5"/>
			<stop  offset="0.593" style="stop-color:#956494"/>
			<stop  offset="0.6227" style="stop-color:#894D85"/>
			<stop  offset="0.6562" style="stop-color:#7D3D7A"/>
			<stop  offset="0.6953" style="stop-color:#743273"/>
			<stop  offset="0.7437" style="stop-color:#6F296E"/>
			<stop  offset="0.8116" style="stop-color:#6B236C"/>
			<stop  offset="1" style="stop-color:#6A236B"/>
		</linearGradient>
		<path class="st2" d="M358.1,303.5c0.2-12.2,5.7-10.8,5.7-10.8V279h-18.1h-18.2v13.7c0,0,5.1-1.8,5.8,10.4c0,0,5.1,20-13.1,41.5
			c0,0,21.2,43.4,21.6,59.3l0.4-52.4c0,0-4.4,0.5-4.6-4.3c-0.2-4.9,4.5-4.7,4.6-4.6h3.7l3.6-0.1c0.1-0.1,4.6-0.6,4.7,4.5
			c0.1,4.6-4.1,4.6-4.6,4.4l0.3,52.3c0.4-15.9,21.6-59.3,21.6-59.3C353.1,323.2,358.1,303.5,358.1,303.5z"/>
		
			<linearGradient id="SVGID_3_" gradientUnits="userSpaceOnUse" x1="320.5114" y1="254.0388" x2="370.9146" y2="254.0388" gradientTransform="matrix(1 0 0 -1 0 595.2756)">
			<stop  offset="0" style="stop-color:#E20E18"/>
			<stop  offset="0" style="stop-color:#E41520"/>
			<stop  offset="0" style="stop-color:#E51E3B"/>
			<stop  offset="0" style="stop-color:#E62448"/>
			<stop  offset="0.1859" style="stop-color:#E62648"/>
			<stop  offset="0.2529" style="stop-color:#E62F4C"/>
			<stop  offset="0.3007" style="stop-color:#E73C53"/>
			<stop  offset="0.3393" style="stop-color:#E94F5D"/>
			<stop  offset="0.3724" style="stop-color:#E9666B"/>
			<stop  offset="0.4017" style="stop-color:#EE8080"/>
			<stop  offset="0.4282" style="stop-color:#F09C98"/>
			<stop  offset="0.4526" style="stop-color:#F3BBB6"/>
			<stop  offset="0.4742" style="stop-color:#F4D8D4"/>
			<stop  offset="0.4944" style="stop-color:#F6F6F6"/>
			<stop  offset="0.4981" style="stop-color:#F0EEF1"/>
			<stop  offset="0.5185" style="stop-color:#D3C6D8"/>
			<stop  offset="0.5415" style="stop-color:#BBA0BC"/>
			<stop  offset="0.5662" style="stop-color:#A67FA5"/>
			<stop  offset="0.593" style="stop-color:#956494"/>
			<stop  offset="0.6227" style="stop-color:#894D85"/>
			<stop  offset="0.6562" style="stop-color:#7D3D7A"/>
			<stop  offset="0.6953" style="stop-color:#743273"/>
			<stop  offset="0.7437" style="stop-color:#6F296E"/>
			<stop  offset="0.8116" style="stop-color:#6B236C"/>
			<stop  offset="1" style="stop-color:#6A236B"/>
		</linearGradient>
		<path class="st3" d="M357.7,303.1c0.2-11.5,5.7-10.8,5.7-10.8v-12.9H345h-17.1l-0.1,12.9c0,0,5.4-0.8,5.8,10.7
			c0,0,5.2,20.4-13.1,41.7c0,0,20.8,43.5,21.2,58.4l0.1-51.2c0,0-4.5,0.1-4.7-4.4c-0.2-4.6,3.9-5.2,4-5.1h4.4h4.6
			c0.1-0.1,4.3-0.1,4.4,4.9c0,4.5-4.2,5-4.6,4.8v51c0.4-15,21.2-58.4,21.2-58.4C353.3,324.1,357.7,303.1,357.7,303.1z"/>
		
			<linearGradient id="SVGID_4_" gradientUnits="userSpaceOnUse" x1="319.5114" y1="253.2888" x2="372.0114" y2="253.2888" gradientTransform="matrix(1 0 0 -1 0 595.2756)">
			<stop  offset="0" style="stop-color:#E20E18"/>
			<stop  offset="0" style="stop-color:#E41520"/>
			<stop  offset="0" style="stop-color:#E51E3B"/>
			<stop  offset="0" style="stop-color:#E62448"/>
			<stop  offset="0.1859" style="stop-color:#E62648"/>
			<stop  offset="0.2529" style="stop-color:#E62F4C"/>
			<stop  offset="0.3007" style="stop-color:#E73C53"/>
			<stop  offset="0.3393" style="stop-color:#E94F5D"/>
			<stop  offset="0.3724" style="stop-color:#E9666B"/>
			<stop  offset="0.4017" style="stop-color:#EE8080"/>
			<stop  offset="0.4282" style="stop-color:#F09C98"/>
			<stop  offset="0.4526" style="stop-color:#F3BBB6"/>
			<stop  offset="0.4742" style="stop-color:#F4D8D4"/>
			<stop  offset="0.4944" style="stop-color:#F6F6F6"/>
			<stop  offset="0.4981" style="stop-color:#F0EEF1"/>
			<stop  offset="0.5185" style="stop-color:#D3C6D8"/>
			<stop  offset="0.5415" style="stop-color:#BBA0BC"/>
			<stop  offset="0.5662" style="stop-color:#A67FA5"/>
			<stop  offset="0.593" style="stop-color:#956494"/>
			<stop  offset="0.6227" style="stop-color:#894D85"/>
			<stop  offset="0.6562" style="stop-color:#7D3D7A"/>
			<stop  offset="0.6953" style="stop-color:#743273"/>
			<stop  offset="0.7437" style="stop-color:#6F296E"/>
			<stop  offset="0.8116" style="stop-color:#6B236C"/>
			<stop  offset="1" style="stop-color:#6A236B"/>
		</linearGradient>
		<path class="st4" d="M358.7,303.5c0.2-12.2,5.8-10,5.8-10v-15.2h-18.8h-18.8v15.2c0,0,5.1-2.4,5.7,9.6c0,0,5.1,19.9-13.1,41.4
			c0,0,21.8,45.2,22.2,61.1l1.1-54.8c0,0-4.6,1.1-4.6-3.7c0-4.2,3.6-3.3,3.6-3.6h3.5h3.7c0.4,0.2,4.2-0.9,4.3,3.6
			c0.1,4.8-4.6,3.7-4.6,3.7l1,54.9c0.4-15.9,22.3-61.1,22.3-61.1C353.8,323.1,358.7,303.5,358.7,303.5z"/>
	</g>
	<g>
		<g>
			<g>
				
					<linearGradient id="SVGID_5_" gradientUnits="userSpaceOnUse" x1="303.4114" y1="405.6356" x2="271.4114" y2="405.6356" gradientTransform="matrix(1 0 0 -1 0 595.2756)">
					<stop  offset="0" style="stop-color:#411135"/>
					<stop  offset="6.950000e-02" style="stop-color:#49153E"/>
					<stop  offset="0.4009" style="stop-color:#61205E"/>
					<stop  offset="0.6774" style="stop-color:#6D2472"/>
					<stop  offset="0.885" style="stop-color:#74237D"/>
					<stop  offset="1" style="stop-color:#772382"/>
				</linearGradient>
				<circle class="st5" cx="287.4" cy="189.6" r="16"/>
				
					<linearGradient id="SVGID_6_" gradientUnits="userSpaceOnUse" x1="303.8114" y1="405.6356" x2="271.0715" y2="405.6356" gradientTransform="matrix(1 0 0 -1 0 595.2756)">
					<stop  offset="0" style="stop-color:#411135"/>
					<stop  offset="6.950000e-02" style="stop-color:#49153E"/>
					<stop  offset="0.4009" style="stop-color:#61205E"/>
					<stop  offset="0.6774" style="stop-color:#6D2472"/>
					<stop  offset="0.885" style="stop-color:#74237D"/>
					<stop  offset="1" style="stop-color:#772382"/>
				</linearGradient>
				<circle class="st6" cx="287.4" cy="189.6" r="16.4"/>
				
					<linearGradient id="SVGID_7_" gradientUnits="userSpaceOnUse" x1="303.1114" y1="405.6356" x2="271.7612" y2="405.6356" gradientTransform="matrix(1 0 0 -1 0 595.2756)">
					<stop  offset="0" style="stop-color:#411135"/>
					<stop  offset="6.950000e-02" style="stop-color:#49153E"/>
					<stop  offset="0.4009" style="stop-color:#61205E"/>
					<stop  offset="0.6774" style="stop-color:#6D2472"/>
					<stop  offset="0.885" style="stop-color:#74237D"/>
					<stop  offset="1" style="stop-color:#772382"/>
				</linearGradient>
				<circle class="st7" cx="287.4" cy="189.6" r="15.7"/>
				
					<linearGradient id="SVGID_8_" gradientUnits="userSpaceOnUse" x1="302.7605" y1="405.6356" x2="272.101" y2="405.6356" gradientTransform="matrix(1 0 0 -1 0 595.2756)">
					<stop  offset="0" style="stop-color:#411135"/>
					<stop  offset="6.950000e-02" style="stop-color:#49153E"/>
					<stop  offset="0.4009" style="stop-color:#61205E"/>
					<stop  offset="0.6774" style="stop-color:#6D2472"/>
					<stop  offset="0.885" style="stop-color:#74237D"/>
					<stop  offset="1" style="stop-color:#772382"/>
				</linearGradient>
				<circle class="st8" cx="287.4" cy="189.6" r="15.3"/>
			</g>
			<g>
				<circle class="st9" cx="405" cy="189.6" r="16"/>
				<circle class="st9" cx="405" cy="189.6" r="16.4"/>
				<circle class="st9" cx="405" cy="189.6" r="15.7"/>
				<circle class="st9" cx="405" cy="189.6" r="15.3"/>
			</g>
		</g>
		<g>
			
				<linearGradient id="SVGID_9_" gradientUnits="userSpaceOnUse" x1="218.6605" y1="314.0888" x2="324.8604" y2="314.0888" gradientTransform="matrix(1 0 0 -1 0 595.2756)">
				<stop  offset="0" style="stop-color:#411135"/>
				<stop  offset="6.950000e-02" style="stop-color:#49153E"/>
				<stop  offset="0.4009" style="stop-color:#61205E"/>
				<stop  offset="0.6774" style="stop-color:#6D2472"/>
				<stop  offset="0.885" style="stop-color:#74237D"/>
				<stop  offset="1" style="stop-color:#772382"/>
			</linearGradient>
			<path class="st10" d="M218.7,158.1c0,0,33,44.2,19.8,76c0,0-24.3,28.3-2.1,76.7c0,0,25.9,73,88.5,93.5c0,0-61.7-39.1-59.6-123.1
				c0,0-0.8-48.6,55.7-44.7c0,0-19.5-14.4-57.8-16.6C263.1,219.9,250.6,181.9,218.7,158.1z"/>
			
				<linearGradient id="SVGID_10_" gradientUnits="userSpaceOnUse" x1="216.4604" y1="314.4388" x2="327.7623" y2="314.4388" gradientTransform="matrix(1 0 0 -1 0 595.2756)">
				<stop  offset="0" style="stop-color:#411135"/>
				<stop  offset="6.950000e-02" style="stop-color:#49153E"/>
				<stop  offset="0.4009" style="stop-color:#61205E"/>
				<stop  offset="0.6774" style="stop-color:#6D2472"/>
				<stop  offset="0.885" style="stop-color:#74237D"/>
				<stop  offset="1" style="stop-color:#772382"/>
			</linearGradient>
			<path class="st11" d="M216.5,156c0,0,34.5,43.2,21.7,77.8c0,0-25,30.2-2.6,76.5c0,0,24.3,73.9,92.2,95.4
				c0.4,0-63.5-35.7-62-126.2c0,0,0-46.5,56.1-42.7c0,0-17.3-15-58.5-17.3C258.4,207.1,247.7,178.4,216.5,156z"/>
			
				<linearGradient id="SVGID_11_" gradientUnits="userSpaceOnUse" x1="220.1605" y1="313.7388" x2="323.0605" y2="313.7388" gradientTransform="matrix(1 0 0 -1 0 595.2756)">
				<stop  offset="0" style="stop-color:#411135"/>
				<stop  offset="6.950000e-02" style="stop-color:#49153E"/>
				<stop  offset="0.4009" style="stop-color:#61205E"/>
				<stop  offset="0.6774" style="stop-color:#6D2472"/>
				<stop  offset="0.885" style="stop-color:#74237D"/>
				<stop  offset="1" style="stop-color:#772382"/>
			</linearGradient>
			<path class="st12" d="M220.2,159.7c0.4,0.3,31.7,44.5,18.5,74.7c-1.1,0.2-22.6,29.8-2.6,75c2.5,6.3,27.4,73,87,94
				c-1.1-0.2-60.3-41.3-58.5-121.3c0.5-2.2,0-49.7,54.8-46.1c0,0-19.7-13.6-56.5-15.7C262.8,220.6,250,183.1,220.2,159.7z"/>
			
				<linearGradient id="SVGID_12_" gradientUnits="userSpaceOnUse" x1="221.7604" y1="313.4888" x2="320.7604" y2="313.4888" gradientTransform="matrix(1 0 0 -1 0 595.2756)">
				<stop  offset="0" style="stop-color:#411135"/>
				<stop  offset="6.950000e-02" style="stop-color:#49153E"/>
				<stop  offset="0.4009" style="stop-color:#61205E"/>
				<stop  offset="0.6774" style="stop-color:#6D2472"/>
				<stop  offset="0.885" style="stop-color:#74237D"/>
				<stop  offset="1" style="stop-color:#772382"/>
			</linearGradient>
			<path class="st13" d="M221.8,161.4c0.5,0.3,30.7,44.6,17.2,73.2c-0.9,0.5-22.1,28.6-3,71.7c2,7.5,29,76.1,84.8,95.9
				c-7.2-5.4-60.2-48.4-56.8-122.5c0,0,1.6-47.2,53.9-44.2c0,0-19.9-12.9-55.1-14.9C262.4,221,249.8,184.1,221.8,161.4z"/>
		</g>
		<g>
			<path class="st9" d="M426.9,219.9c-38.3,2.2-57.8,16.6-57.8,16.6c56.5-3.9,55.7,44.7,55.7,44.7c2.1,84-59.6,123.1-59.6,123.1
				c62.6-20.5,88.5-93.5,88.5-93.5c22.2-48.4-2.1-76.7-2.1-76.7c-13.2-31.8,19.8-76,19.8-76C439.5,181.9,427,219.9,426.9,219.9z"/>
			<path class="st9" d="M426.6,219.5c-41.2,2.4-58.5,17.3-58.5,17.3c56.1-3.8,56.1,42.7,56.1,42.7c1.5,90.5-62.4,126.2-62,126.2
				c67.9-21.5,92.2-95.4,92.2-95.4c22.4-46.4-2.6-76.5-2.6-76.5C439,199.3,473.5,156,473.5,156C442.4,178.4,431.6,207.1,426.6,219.5
				z"/>
			<path class="st9" d="M469.8,159.7c-0.4,0.3-31.7,44.5-18.5,74.7c1.1,0.2,22.6,29.8,2.6,75c-2.5,6.3-27.4,73-87,94
				c1.1-0.2,60.3-41.3,58.5-121.3c-0.5-2.2,0-49.7-54.8-46.1c0,0,19.7-13.6,56.5-15.7C427.2,220.6,440.1,183.1,469.8,159.7z"/>
			<path class="st9" d="M468.3,161.4c-0.5,0.3-30.7,44.6-17.2,73.2c0.9,0.5,22.1,28.6,3,71.7c-2,7.5-29,76.1-84.8,95.9
				c7.2-5.4,60.2-48.4,56.8-122.5c0,0-1.6-47.2-53.9-44.2c0,0,19.9-12.9,55.1-14.9C427.6,221,440.2,184.1,468.3,161.4z"/>
		</g>
		<line class="st14" x1="263.4" y1="219.5" x2="276.3" y2="201.7"/>
		<line class="st14" x1="426.6" y1="219.5" x2="414.5" y2="203"/>
	</g>
	<polyline class="st14" points="327.8,405.7 324.4,453.7 362.2,405.7 349.7,405.7 	"/>
</g>
</svg>
